<?xml version="1.0" encoding="UTF-8" standalone="no"?>
<!DOCTYPE svg PUBLIC "-//W3C//DTD SVG 1.1//EN"
 "http://www.w3.org/Graphics/SVG/1.1/DTD/svg11.dtd">
<!-- Generated by graphviz version 2.40.1 (20161225.0304)
 -->
<!-- Title: %0 Pages: 1 -->
<svg width="860pt" height="353pt"
 viewBox="0.00 0.00 860.12 353.05" xmlns="http://www.w3.org/2000/svg" xmlns:xlink="http://www.w3.org/1999/xlink">
<g id="graph0" class="graph" transform="scale(1 1) rotate(0) translate(4 349.0483)">
<title>%0</title>
<polygon fill="#ffffff" stroke="transparent" points="-4,4 -4,-349.0483 856.12,-349.0483 856.12,4 -4,4"/>
<!-- start -->
<g id="node1" class="node">
<title>start</title>
<ellipse fill="#000000" stroke="#000000" cx="9" cy="-187.2483" rx="9" ry="9"/>
</g>
<!-- READY -->
<g id="node2" class="node">
<title>READY</title>
<ellipse fill="none" stroke="#000000" cx="120.8526" cy="-187.2483" rx="44.0814" ry="18"/>
<text text-anchor="middle" x="120.8526" y="-183.0483" font-family="Times,serif" font-size="14.00" fill="#000000">READY</text>
</g>
<!-- start&#45;&gt;READY -->
<g id="edge1" class="edge">
<title>start&#45;&gt;READY</title>
<path fill="none" stroke="#000000" d="M18.1534,-187.2483C28.8949,-187.2483 47.603,-187.2483 66.1341,-187.2483"/>
<polygon fill="#000000" stroke="#000000" points="66.3593,-190.7484 76.3593,-187.2483 66.3592,-183.7484 66.3593,-190.7484"/>
<text text-anchor="middle" x="47.2812" y="-191.4483" font-family="Times,serif" font-size="14.00" fill="#000000">:init</text>
</g>
<!-- CODEREQUIRED -->
<g id="node3" class="node">
<title>CODEREQUIRED</title>
<ellipse fill="none" stroke="#000000" cx="432.2921" cy="-299.2483" rx="86.2541" ry="18"/>
<text text-anchor="middle" x="432.2921" y="-295.0483" font-family="Times,serif" font-size="14.00" fill="#000000">CODEREQUIRED</text>
</g>
<!-- READY&#45;&gt;CODEREQUIRED -->
<g id="edge2" class="edge">
<title>READY&#45;&gt;CODEREQUIRED</title>
<path fill="none" stroke="#000000" d="M124.3029,-205.2219C130.6074,-232.4671 146.8381,-283.3603 183.1428,-305.2483 241.2767,-340.297 321.732,-330.1333 375.3155,-317.0101"/>
<polygon fill="#000000" stroke="#000000" points="376.508,-320.3177 385.3277,-314.4472 374.7721,-313.5364 376.508,-320.3177"/>
<text text-anchor="middle" x="242.2424" y="-332.4483" font-family="Times,serif" font-size="14.00" fill="#000000">:submit&#45;no&#45;code</text>
</g>
<!-- USERNAMEREQUIRED -->
<g id="node4" class="node">
<title>USERNAMEREQUIRED</title>
<ellipse fill="none" stroke="#000000" cx="432.2921" cy="-235.2483" rx="112.9002" ry="18"/>
<text text-anchor="middle" x="432.2921" y="-231.0483" font-family="Times,serif" font-size="14.00" fill="#000000">USERNAMEREQUIRED</text>
</g>
<!-- READY&#45;&gt;USERNAMEREQUIRED -->
<g id="edge3" class="edge">
<title>READY&#45;&gt;USERNAMEREQUIRED</title>
<path fill="none" stroke="#000000" d="M141.1868,-203.3121C152.7809,-211.4931 167.9873,-220.6605 183.1428,-225.2483 226.3866,-238.3388 275.7823,-242.4176 319.126,-242.6569"/>
<polygon fill="#000000" stroke="#000000" points="319.1428,-246.157 329.1388,-242.6454 319.1347,-239.157 319.1428,-246.157"/>
<text text-anchor="middle" x="242.2424" y="-245.4483" font-family="Times,serif" font-size="14.00" fill="#000000">:submit&#45;no&#45;name</text>
</g>
<!-- PASSWORDREQUIRED -->
<g id="node5" class="node">
<title>PASSWORDREQUIRED</title>
<ellipse fill="none" stroke="#000000" cx="432.2921" cy="-159.2483" rx="112.338" ry="18"/>
<text text-anchor="middle" x="432.2921" y="-155.0483" font-family="Times,serif" font-size="14.00" fill="#000000">PASSWORDREQUIRED</text>
</g>
<!-- READY&#45;&gt;PASSWORDREQUIRED -->
<g id="edge4" class="edge">
<title>READY&#45;&gt;PASSWORDREQUIRED</title>
<path fill="none" stroke="#000000" d="M154.4238,-175.401C163.6226,-172.628 173.6716,-170.0255 183.1428,-168.4483 224.1766,-161.615 269.5148,-158.6157 310.1426,-157.5348"/>
<polygon fill="#000000" stroke="#000000" points="310.4477,-161.0289 320.3648,-157.3002 310.287,-154.0307 310.4477,-161.0289"/>
<text text-anchor="middle" x="242.2424" y="-172.4483" font-family="Times,serif" font-size="14.00" fill="#000000">:submit&#45;no&#45;password</text>
</g>
<!-- SUBMITTINGDATA -->
<g id="node6" class="node">
<title>SUBMITTINGDATA</title>
<ellipse fill="none" stroke="#000000" cx="432.2921" cy="-97.2483" rx="97.2702" ry="18"/>
<text text-anchor="middle" x="432.2921" y="-93.0483" font-family="Times,serif" font-size="14.00" fill="#000000">SUBMITTINGDATA</text>
</g>
<!-- READY&#45;&gt;SUBMITTINGDATA -->
<g id="edge5" class="edge">
<title>READY&#45;&gt;SUBMITTINGDATA</title>
<path fill="none" stroke="#000000" d="M128.0529,-169.454C137.3754,-149.0768 155.7464,-116.6785 183.1428,-102.4483 236.7746,-74.591 306.0589,-75.5864 357.9458,-82.2414"/>
<polygon fill="#000000" stroke="#000000" points="357.6966,-85.7402 368.0814,-83.641 358.6542,-78.806 357.6966,-85.7402"/>
<text text-anchor="middle" x="242.2424" y="-106.4483" font-family="Times,serif" font-size="14.00" fill="#000000">:try&#45;submit</text>
</g>
<!-- CODEREQUIRED&#45;&gt;READY -->
<g id="edge8" class="edge">
<title>CODEREQUIRED&#45;&gt;READY</title>
<path fill="none" stroke="#000000" d="M356.3628,-290.7427C288.7083,-282.7132 198.1247,-270.6792 183.1428,-262.2483 163.1047,-250.9722 146.7931,-230.5448 135.8953,-213.8533"/>
<polygon fill="#000000" stroke="#000000" points="138.6672,-211.6834 130.4088,-205.0464 132.7258,-215.3848 138.6672,-211.6834"/>
<text text-anchor="middle" x="242.2424" y="-286.4483" font-family="Times,serif" font-size="14.00" fill="#000000">:modify&#45;code</text>
</g>
<!-- USERNAMEREQUIRED&#45;&gt;READY -->
<g id="edge9" class="edge">
<title>USERNAMEREQUIRED&#45;&gt;READY</title>
<path fill="none" stroke="#000000" d="M373.9659,-219.7367C351.4147,-214.2124 325.309,-208.3901 301.342,-204.4483 259.221,-197.5208 211.0767,-193.1061 175.1108,-190.486"/>
<polygon fill="#000000" stroke="#000000" points="175.0547,-186.9735 164.8334,-189.7618 174.5627,-193.9561 175.0547,-186.9735"/>
<text text-anchor="middle" x="242.2424" y="-208.4483" font-family="Times,serif" font-size="14.00" fill="#000000">:modify&#45;name</text>
</g>
<!-- PASSWORDREQUIRED&#45;&gt;READY -->
<g id="edge10" class="edge">
<title>PASSWORDREQUIRED&#45;&gt;READY</title>
<path fill="none" stroke="#000000" d="M383.473,-142.8707C332.1035,-128.3402 249.6365,-112.7719 183.1428,-136.4483 168.0155,-141.8347 153.9021,-152.6426 142.9475,-162.9099"/>
<polygon fill="#000000" stroke="#000000" points="140.2159,-160.6884 135.5597,-170.2053 145.1344,-165.6692 140.2159,-160.6884"/>
<text text-anchor="middle" x="242.2424" y="-140.4483" font-family="Times,serif" font-size="14.00" fill="#000000">:modify&#45;password</text>
</g>
<!-- ERRORRESPONSE -->
<g id="node7" class="node">
<title>ERRORRESPONSE</title>
<ellipse fill="none" stroke="#000000" cx="760.6054" cy="-44.2483" rx="91.5292" ry="18"/>
<text text-anchor="middle" x="760.6054" y="-40.0483" font-family="Times,serif" font-size="14.00" fill="#000000">ERRORRESPONSE</text>
</g>
<!-- SUBMITTINGDATA&#45;&gt;ERRORRESPONSE -->
<g id="edge6" class="edge">
<title>SUBMITTINGDATA&#45;&gt;ERRORRESPONSE</title>
<path fill="none" stroke="#000000" d="M505.972,-85.3541C557.568,-77.0249 626.5062,-65.8961 679.6393,-57.3188"/>
<polygon fill="#000000" stroke="#000000" points="680.3922,-60.7426 689.7066,-55.6936 679.2766,-53.8321 680.3922,-60.7426"/>
<text text-anchor="middle" x="607.1665" y="-79.4483" font-family="Times,serif" font-size="14.00" fill="#000000">:handle&#45;error</text>
</g>
<!-- SUCCESS -->
<g id="node8" class="node">
<title>SUCCESS</title>
<ellipse fill="none" stroke="#000000" cx="760.6054" cy="-137.2483" rx="52.7929" ry="52.7929"/>
<ellipse fill="none" stroke="#000000" cx="760.6054" cy="-137.2483" rx="56.7854" ry="56.7854"/>
<text text-anchor="middle" x="760.6054" y="-133.0483" font-family="Times,serif" font-size="14.00" fill="#000000">SUCCESS</text>
</g>
<!-- SUBMITTINGDATA&#45;&gt;SUCCESS -->
<g id="edge7" class="edge">
<title>SUBMITTINGDATA&#45;&gt;SUCCESS</title>
<path fill="none" stroke="#000000" d="M513.87,-107.1874C569.3298,-113.9443 641.7934,-122.7729 693.8213,-129.1117"/>
<polygon fill="#000000" stroke="#000000" points="693.5934,-132.6097 703.9433,-130.3449 694.44,-125.6611 693.5934,-132.6097"/>
<text text-anchor="middle" x="607.1665" y="-126.4483" font-family="Times,serif" font-size="14.00" fill="#000000">:handle&#45;success</text>
</g>
<!-- ERRORRESPONSE&#45;&gt;READY -->
<g id="edge11" class="edge">
<title>ERRORRESPONSE&#45;&gt;READY</title>
<path fill="none" stroke="#000000" d="M706.0609,-29.6643C595.9882,-3.6663 344.0891,38.0662 183.1428,-74.2483 154.1132,-94.5063 137.1876,-132.8114 128.4843,-159.1644"/>
<polygon fill="#000000" stroke="#000000" points="125.0665,-158.3689 125.4439,-168.957 131.7517,-160.4446 125.0665,-158.3689"/>
<text text-anchor="middle" x="432.2921" y="-19.4483" font-family="Times,serif" font-size="14.00" fill="#000000">:modify&#45;code</text>
</g>
</g>
</svg>
