<?xml version="1.0" encoding="UTF-8" standalone="no"?>
<!DOCTYPE svg PUBLIC "-//W3C//DTD SVG 1.1//EN"
 "http://www.w3.org/Graphics/SVG/1.1/DTD/svg11.dtd">
<!-- Generated by graphviz version 2.40.1 (20161225.0304)
 -->
<!-- Title: %0 Pages: 1 -->
<svg width="860pt" height="521pt"
 viewBox="0.00 0.00 860.12 520.99" xmlns="http://www.w3.org/2000/svg" xmlns:xlink="http://www.w3.org/1999/xlink">
<g id="graph0" class="graph" transform="scale(1 1) rotate(0) translate(4 516.9907)">
<title>%0</title>
<polygon fill="#ffffff" stroke="transparent" points="-4,4 -4,-516.9907 856.12,-516.9907 856.12,4 -4,4"/>
<!-- start -->
<g id="node1" class="node">
<title>start</title>
<ellipse fill="#000000" stroke="#000000" cx="9" cy="-287.1907" rx="9" ry="9"/>
</g>
<!-- READY -->
<g id="node2" class="node">
<title>READY</title>
<ellipse fill="none" stroke="#000000" cx="120.8526" cy="-287.1907" rx="44.0814" ry="18"/>
<text text-anchor="middle" x="120.8526" y="-282.9907" font-family="Times,serif" font-size="14.00" fill="#000000">READY</text>
</g>
<!-- start&#45;&gt;READY -->
<g id="edge1" class="edge">
<title>start&#45;&gt;READY</title>
<path fill="none" stroke="#000000" d="M18.1534,-287.1907C28.8949,-287.1907 47.603,-287.1907 66.1341,-287.1907"/>
<polygon fill="#000000" stroke="#000000" points="66.3593,-290.6908 76.3593,-287.1907 66.3592,-283.6908 66.3593,-290.6908"/>
<text text-anchor="middle" x="47.2812" y="-291.3907" font-family="Times,serif" font-size="14.00" fill="#000000">:init</text>
</g>
<!-- CODEREQUIRED -->
<g id="node3" class="node">
<title>CODEREQUIRED</title>
<ellipse fill="none" stroke="#000000" cx="432.2921" cy="-474.1907" rx="86.2541" ry="18"/>
<text text-anchor="middle" x="432.2921" y="-469.9907" font-family="Times,serif" font-size="14.00" fill="#000000">CODEREQUIRED</text>
</g>
<!-- READY&#45;&gt;CODEREQUIRED -->
<g id="edge2" class="edge">
<title>READY&#45;&gt;CODEREQUIRED</title>
<path fill="none" stroke="#000000" d="M124.0024,-305.5715C130.021,-334.8093 146.0195,-391.6204 183.1428,-421.1907 186.6839,-424.0114 287.6902,-444.9197 359.9902,-459.6149"/>
<polygon fill="#000000" stroke="#000000" points="359.492,-463.0851 369.9884,-461.6448 360.8847,-456.2251 359.492,-463.0851"/>
<text text-anchor="middle" x="242.2424" y="-450.3907" font-family="Times,serif" font-size="14.00" fill="#000000">:submit&#45;no&#45;code</text>
</g>
<!-- USERNAMEREQUIRED -->
<g id="node4" class="node">
<title>USERNAMEREQUIRED</title>
<ellipse fill="none" stroke="#000000" cx="432.2921" cy="-394.1907" rx="112.9002" ry="18"/>
<text text-anchor="middle" x="432.2921" y="-389.9907" font-family="Times,serif" font-size="14.00" fill="#000000">USERNAMEREQUIRED</text>
</g>
<!-- READY&#45;&gt;USERNAMEREQUIRED -->
<g id="edge3" class="edge">
<title>READY&#45;&gt;USERNAMEREQUIRED</title>
<path fill="none" stroke="#000000" d="M136.7262,-304.1909C148.4701,-315.7613 165.4397,-330.4982 183.1428,-339.1907 198.3182,-346.6421 283.9971,-364.7656 350.6946,-378.1828"/>
<polygon fill="#000000" stroke="#000000" points="350.3112,-381.6755 360.8041,-380.2099 351.6874,-374.8121 350.3112,-381.6755"/>
<text text-anchor="middle" x="242.2424" y="-370.3907" font-family="Times,serif" font-size="14.00" fill="#000000">:submit&#45;no&#45;name</text>
</g>
<!-- PASSWORDREQUIRED -->
<g id="node5" class="node">
<title>PASSWORDREQUIRED</title>
<ellipse fill="none" stroke="#000000" cx="432.2921" cy="-322.1907" rx="112.338" ry="18"/>
<text text-anchor="middle" x="432.2921" y="-317.9907" font-family="Times,serif" font-size="14.00" fill="#000000">PASSWORDREQUIRED</text>
</g>
<!-- READY&#45;&gt;PASSWORDREQUIRED -->
<g id="edge4" class="edge">
<title>READY&#45;&gt;PASSWORDREQUIRED</title>
<path fill="none" stroke="#000000" d="M164.8232,-284.4813C201.4967,-282.9391 255.0436,-282.3555 301.342,-288.3907 324.7627,-291.4437 349.9968,-297.3163 372.0028,-303.3212"/>
<polygon fill="#000000" stroke="#000000" points="371.2952,-306.7575 381.8684,-306.0799 373.1803,-300.0161 371.2952,-306.7575"/>
<text text-anchor="middle" x="242.2424" y="-292.3907" font-family="Times,serif" font-size="14.00" fill="#000000">:submit&#45;no&#45;password</text>
</g>
<!-- SUBMITTINGDATA -->
<g id="node6" class="node">
<title>SUBMITTINGDATA</title>
<ellipse fill="none" stroke="#000000" cx="432.2921" cy="-99.1907" rx="97.2702" ry="18"/>
<text text-anchor="middle" x="432.2921" y="-94.9907" font-family="Times,serif" font-size="14.00" fill="#000000">SUBMITTINGDATA</text>
</g>
<!-- READY&#45;&gt;SUBMITTINGDATA -->
<g id="edge5" class="edge">
<title>READY&#45;&gt;SUBMITTINGDATA</title>
<path fill="none" stroke="#000000" d="M121.7603,-268.9328C124.5688,-234.0602 136.0671,-158.2622 183.1428,-122.3907 230.2122,-86.524 297.7342,-82.2586 350.6152,-86.119"/>
<polygon fill="#000000" stroke="#000000" points="350.3902,-89.6123 360.6477,-86.9604 350.9753,-82.6368 350.3902,-89.6123"/>
<text text-anchor="middle" x="242.2424" y="-127.3907" font-family="Times,serif" font-size="14.00" fill="#000000">:try&#45;submit</text>
</g>
<!-- CODEREQUIRED&#45;&gt;READY -->
<g id="edge9" class="edge">
<title>CODEREQUIRED&#45;&gt;READY</title>
<path fill="none" stroke="#000000" d="M378.7629,-488.3195C324.1052,-499.3682 239.5007,-506.7273 183.1428,-465.1907 158.5084,-447.0348 136.6362,-360.4792 126.6281,-315.1001"/>
<polygon fill="#000000" stroke="#000000" points="130.043,-314.3321 124.5096,-305.297 123.2009,-315.8107 130.043,-314.3321"/>
<text text-anchor="middle" x="242.2424" y="-500.3907" font-family="Times,serif" font-size="14.00" fill="#000000">:modify&#45;code</text>
</g>
<!-- USERNAMEREQUIRED&#45;&gt;READY -->
<g id="edge10" class="edge">
<title>USERNAMEREQUIRED&#45;&gt;READY</title>
<path fill="none" stroke="#000000" d="M325.4138,-400.0272C269.2218,-401.2046 207.1307,-398.9366 183.1428,-385.1907 156.3588,-369.8426 139.3302,-337.7932 129.9694,-314.5132"/>
<polygon fill="#000000" stroke="#000000" points="133.237,-313.2586 126.4211,-305.1472 126.691,-315.7386 133.237,-313.2586"/>
<text text-anchor="middle" x="242.2424" y="-404.3907" font-family="Times,serif" font-size="14.00" fill="#000000">:modify&#45;name</text>
</g>
<!-- PASSWORDREQUIRED&#45;&gt;READY -->
<g id="edge11" class="edge">
<title>PASSWORDREQUIRED&#45;&gt;READY</title>
<path fill="none" stroke="#000000" d="M320.6739,-319.6509C277.4668,-317.345 227.7597,-313.0663 183.1428,-305.1907 177.3195,-304.1628 171.2633,-302.7988 165.3148,-301.28"/>
<polygon fill="#000000" stroke="#000000" points="166.0335,-297.8485 155.466,-298.6096 164.2016,-304.6046 166.0335,-297.8485"/>
<text text-anchor="middle" x="242.2424" y="-322.3907" font-family="Times,serif" font-size="14.00" fill="#000000">:modify&#45;password</text>
</g>
<!-- ERRORRESPONSE -->
<g id="node7" class="node">
<title>ERRORRESPONSE</title>
<ellipse fill="none" stroke="#000000" cx="760.6054" cy="-179.1907" rx="91.5292" ry="18"/>
<text text-anchor="middle" x="760.6054" y="-174.9907" font-family="Times,serif" font-size="14.00" fill="#000000">ERRORRESPONSE</text>
</g>
<!-- SUBMITTINGDATA&#45;&gt;ERRORRESPONSE -->
<g id="edge6" class="edge">
<title>SUBMITTINGDATA&#45;&gt;ERRORRESPONSE</title>
<path fill="none" stroke="#000000" d="M528.8645,-101.6813C567.512,-104.6672 612.0402,-110.6504 651.0908,-122.3907 677.1768,-130.2333 704.3728,-144.3022 725.1378,-156.4753"/>
<polygon fill="#000000" stroke="#000000" points="723.532,-159.5932 733.9094,-161.7287 727.1286,-153.5879 723.532,-159.5932"/>
<text text-anchor="middle" x="607.1665" y="-127.3907" font-family="Times,serif" font-size="14.00" fill="#000000">:handle&#45;error</text>
</g>
<!-- SUCCESS -->
<g id="node8" class="node">
<title>SUCCESS</title>
<ellipse fill="none" stroke="#000000" cx="760.6054" cy="-63.1907" rx="52.7854" ry="18"/>
<text text-anchor="middle" x="760.6054" y="-58.9907" font-family="Times,serif" font-size="14.00" fill="#000000">SUCCESS</text>
</g>
<!-- SUBMITTINGDATA&#45;&gt;SUCCESS -->
<g id="edge7" class="edge">
<title>SUBMITTINGDATA&#45;&gt;SUCCESS</title>
<path fill="none" stroke="#000000" d="M509.4292,-88.1419C527.0935,-85.7686 545.8034,-83.3791 563.2422,-81.3907 608.5918,-76.22 659.9336,-71.5214 698.8824,-68.1938"/>
<polygon fill="#000000" stroke="#000000" points="699.3453,-71.6672 709.014,-67.3353 698.7542,-64.6922 699.3453,-71.6672"/>
<text text-anchor="middle" x="607.1665" y="-86.3907" font-family="Times,serif" font-size="14.00" fill="#000000">:handle&#45;success</text>
</g>
<!-- ERRORRESPONSE&#45;&gt;READY -->
<g id="edge12" class="edge">
<title>ERRORRESPONSE&#45;&gt;READY</title>
<path fill="none" stroke="#000000" d="M679.7083,-170.7155C540.3416,-157.774 262.2911,-139.7366 183.1428,-192.1907 158.6219,-208.4415 141.5291,-238.0053 131.5326,-259.852"/>
<polygon fill="#000000" stroke="#000000" points="128.215,-258.7048 127.4378,-269.2711 134.6346,-261.4956 128.215,-258.7048"/>
<text text-anchor="middle" x="432.2921" y="-164.3907" font-family="Times,serif" font-size="14.00" fill="#000000">:modify&#45;code</text>
</g>
<!-- ERRORRESPONSE&#45;&gt;READY -->
<g id="edge13" class="edge">
<title>ERRORRESPONSE&#45;&gt;READY</title>
<path fill="none" stroke="#000000" d="M723.2788,-195.6373C702.4173,-204.196 675.7295,-214.1136 651.0908,-220.1907 447.5668,-270.39 391.0892,-252.7282 183.1428,-279.1907 179.9521,-279.5967 176.6696,-280.0154 173.3589,-280.4385"/>
<polygon fill="#000000" stroke="#000000" points="172.8801,-276.9711 163.4053,-281.7123 173.7688,-283.9145 172.8801,-276.9711"/>
<text text-anchor="middle" x="432.2921" y="-269.3907" font-family="Times,serif" font-size="14.00" fill="#000000">:modify&#45;name</text>
</g>
<!-- ERRORRESPONSE&#45;&gt;READY -->
<g id="edge14" class="edge">
<title>ERRORRESPONSE&#45;&gt;READY</title>
<path fill="none" stroke="#000000" d="M670.246,-182.4826C580.5051,-187.0021 439.3486,-197.4935 319.342,-221.3907 263.214,-232.5676 200.9463,-254.9301 161.3835,-270.4642"/>
<polygon fill="#000000" stroke="#000000" points="159.8353,-267.313 151.8319,-274.2554 162.4178,-273.8192 159.8353,-267.313"/>
<text text-anchor="middle" x="432.2921" y="-225.3907" font-family="Times,serif" font-size="14.00" fill="#000000">:modify&#45;password</text>
</g>
<!-- SUCCESS&#45;&gt;READY -->
<g id="edge8" class="edge">
<title>SUCCESS&#45;&gt;READY</title>
<path fill="none" stroke="#000000" d="M723.6375,-50.187C622.397,-17.178 337.9124,57.7286 183.1428,-82.1907 156.7384,-106.0616 134.9993,-208.8175 125.7077,-259.1672"/>
<polygon fill="#000000" stroke="#000000" points="122.2526,-258.6052 123.9167,-269.0686 129.1408,-259.8513 122.2526,-258.6052"/>
<text text-anchor="middle" x="432.2921" y="-16.3907" font-family="Times,serif" font-size="14.00" fill="#000000">:modify&#45;code</text>
</g>
</g>
</svg>
